<?xml version="1.0" encoding="UTF-8" ?>
<svg version="1.1" width="20" height="16" xmlns="http://www.w3.org/2000/svg" shape-rendering="crispEdges">
<rect x="5" y="0" width="10" height="3" fill="#2C3A72" />
<rect x="4" y="1" width="1" height="5" fill="#2C3A72" />
<rect x="15" y="1" width="1" height="5" fill="#2C3A72" />
<rect x="3" y="2" width="1" height="10" fill="#2C3A72" />
<rect x="16" y="2" width="1" height="10" fill="#2C3A72" />
<rect x="5" y="3" width="1" height="1" fill="#2C3A72" />
<rect x="6" y="3" width="3" height="2" fill="#FFFFFF" />
<rect x="9" y="3" width="2" height="1" fill="#2C3A72" />
<rect x="11" y="3" width="3" height="2" fill="#FFFFFF" />
<rect x="14" y="3" width="1" height="1" fill="#2C3A72" />
<rect x="2" y="4" width="1" height="8" fill="#2C3A72" />
<rect x="5" y="4" width="1" height="2" fill="#FFFFFF" />
<rect x="9" y="4" width="2" height="3" fill="#FFFFFF" />
<rect x="14" y="4" width="1" height="2" fill="#FFFFFF" />
<rect x="17" y="4" width="1" height="8" fill="#2C3A72" />
<rect x="6" y="5" width="1" height="3" fill="#273469" />
<rect x="7" y="5" width="1" height="2" fill="#192659" />
<rect x="8" y="5" width="1" height="8" fill="#FFFFFF" />
<rect x="11" y="5" width="1" height="8" fill="#FFFFFF" />
<rect x="12" y="5" width="1" height="3" fill="#273469" />
<rect x="13" y="5" width="1" height="2" fill="#192659" />
<rect x="4" y="6" width="1" height="1" fill="#FFF0F3" />
<rect x="5" y="6" width="1" height="1" fill="#FFE8EC" />
<rect x="14" y="6" width="1" height="1" fill="#FFE8EC" />
<rect x="15" y="6" width="1" height="1" fill="#FFF0F3" />
<rect x="4" y="7" width="1" height="1" fill="#FFE8EC" />
<rect x="5" y="7" width="1" height="1" fill="#FFB4C3" />
<rect x="7" y="7" width="1" height="1" fill="#273469" />
<rect x="9" y="7" width="1" height="1" fill="#FFC53D" />
<rect x="10" y="7" width="1" height="1" fill="#FFAE1E" />
<rect x="13" y="7" width="1" height="1" fill="#273469" />
<rect x="14" y="7" width="1" height="1" fill="#FFB4C3" />
<rect x="15" y="7" width="1" height="1" fill="#FFE8EC" />
<rect x="1" y="8" width="1" height="2" fill="#2C3A72" />
<rect x="4" y="8" width="1" height="1" fill="#FFF0F3" />
<rect x="5" y="8" width="1" height="1" fill="#FFE8EC" />
<rect x="6" y="8" width="2" height="4" fill="#FFFFFF" />
<rect x="9" y="8" width="2" height="5" fill="#FFFFFF" />
<rect x="12" y="8" width="2" height="4" fill="#FFFFFF" />
<rect x="14" y="8" width="1" height="1" fill="#FFE8EC" />
<rect x="15" y="8" width="1" height="1" fill="#FFF0F3" />
<rect x="18" y="8" width="1" height="2" fill="#2C3A72" />
<rect x="0" y="9" width="1" height="1" fill="#2C3A72" />
<rect x="4" y="9" width="1" height="1" fill="#FFF3F5" />
<rect x="5" y="9" width="1" height="3" fill="#FFFFFF" />
<rect x="14" y="9" width="1" height="3" fill="#FFFFFF" />
<rect x="15" y="9" width="1" height="1" fill="#FFF3F5" />
<rect x="19" y="9" width="1" height="1" fill="#2C3A72" />
<rect x="4" y="10" width="1" height="2" fill="#FFFFFF" />
<rect x="15" y="10" width="1" height="2" fill="#FFFFFF" />
<rect x="2" y="12" width="1" height="2" fill="#222E5E" />
<rect x="3" y="12" width="1" height="1" fill="#273367" />
<rect x="4" y="12" width="1" height="1" fill="#E8EAF4" />
<rect x="5" y="12" width="2" height="1" fill="#222E5E" />
<rect x="7" y="12" width="1" height="1" fill="#E8EAF4" />
<rect x="12" y="12" width="1" height="1" fill="#E8EAF4" />
<rect x="13" y="12" width="2" height="1" fill="#222E5E" />
<rect x="15" y="12" width="1" height="1" fill="#E8EAF4" />
<rect x="16" y="12" width="1" height="1" fill="#273367" />
<rect x="17" y="12" width="1" height="2" fill="#222E5E" />
<rect x="3" y="13" width="2" height="2" fill="#222E5E" />
<rect x="5" y="13" width="1" height="1" fill="#FFC53D" />
<rect x="6" y="13" width="1" height="2" fill="#FFAE1E" />
<rect x="7" y="13" width="1" height="3" fill="#222E5E" />
<rect x="8" y="13" width="4" height="2" fill="#E8EAF4" />
<rect x="12" y="13" width="1" height="3" fill="#222E5E" />
<rect x="13" y="13" width="1" height="1" fill="#FFC53D" />
<rect x="14" y="13" width="1" height="2" fill="#FFAE1E" />
<rect x="15" y="13" width="2" height="2" fill="#222E5E" />
<rect x="5" y="14" width="1" height="1" fill="#FFAE1E" />
<rect x="13" y="14" width="1" height="1" fill="#FFAE1E" />
<rect x="4" y="15" width="3" height="1" fill="#222E5E" />
<rect x="8" y="15" width="4" height="1" fill="#222E5E" />
<rect x="13" y="15" width="3" height="1" fill="#222E5E" />
</svg>